<?xml version="1.0" ?><!DOCTYPE svg  PUBLIC '-//W3C//DTD SVG 1.1//EN'  'http://www.w3.org/Graphics/SVG/1.1/DTD/svg11.dtd'><svg height="512px" style="enable-background:new 0 0 512 512;" version="1.1" viewBox="0 0 512 512" width="512px" xml:space="preserve" xmlns="http://www.w3.org/2000/svg" xmlns:xlink="http://www.w3.org/1999/xlink"><g id="B_-_117_x2C__clock_x2C__Business_x2C__clocks_x2C__office_clocks_x2C__time_zone_x2C__wall_clocks_x2C__world_time"><g><path d="M430.174,81.519c-4.643-4.642-9.773-8.755-15.397-12.257l-7.734,13.357    c-0.896,1.506-2.849,2.036-4.401,1.18c-1.545-0.895-2.032-2.89-1.137-4.397l7.734-13.357c-11.398-6.028-24.186-9.612-37.787-10.1    v15.394c0,1.751-1.467,3.217-3.262,3.217c-1.789,0-3.257-1.466-3.257-3.217V55.945c-13.603,0.488-26.389,4.072-37.709,10.1    l7.656,13.357c0.896,1.507,0.323,3.502-1.144,4.397c-1.546,0.856-3.5,0.326-4.395-1.18l-7.741-13.357    c-5.538,3.502-10.747,7.616-15.392,12.257c-4.644,4.685-8.795,9.815-12.3,15.394l13.358,7.738c1.547,0.854,2.04,2.85,1.224,4.357    c-0.894,1.547-2.854,2.077-4.399,1.18l-13.359-7.696c-6.025,11.362-9.61,24.149-10.098,37.791h15.393    c1.795,0,3.176,1.426,3.176,3.218c0,1.792-1.381,3.217-3.176,3.217h-15.393c0.487,13.642,4.072,26.47,10.098,37.792l13.359-7.696    c1.545-0.897,3.506-0.367,4.399,1.181c0.816,1.507,0.323,3.502-1.224,4.398l-13.358,7.697c3.505,5.578,7.656,10.75,12.3,15.394    c4.645,4.642,9.774,8.755,15.392,12.257l7.741-13.357c0.895-1.506,2.849-2.036,4.395-1.14c1.467,0.896,2.039,2.851,1.144,4.398    l-7.656,13.357c11.32,5.987,24.106,9.57,37.709,10.099v-15.435c0-1.75,1.468-3.216,3.257-3.216c1.795,0,3.262,1.466,3.262,3.216    v15.435c13.602-0.529,26.389-4.112,37.787-10.14l-7.734-13.316c-0.896-1.547-0.408-3.502,1.137-4.398    c1.553-0.896,3.506-0.366,4.401,1.14l7.734,13.357c5.624-3.502,10.755-7.616,15.397-12.257c4.645-4.644,8.715-9.816,12.215-15.394    l-13.359-7.697c-1.466-0.896-2.032-2.891-1.137-4.398c0.894-1.547,2.848-2.078,4.399-1.181l13.353,7.696    c6.031-11.322,9.617-24.149,10.104-37.792h-15.392c-1.796,0-3.263-1.426-3.263-3.217c0-1.792,1.467-3.218,3.263-3.218h15.392    c-0.486-13.642-4.072-26.469-10.104-37.791l-13.353,7.696c-1.552,0.897-3.506,0.367-4.399-1.18    c-0.896-1.507-0.329-3.502,1.137-4.357l13.445-7.738C438.969,91.334,434.818,86.162,430.174,81.519 M368.189,49.429h0.084h0.079    c25.901,0.041,49.358,10.548,66.38,27.53c16.943,17.022,27.533,40.479,27.533,66.379v0.082v0.082v0.082v0.081    c0,25.941-10.51,49.397-27.533,66.379c-17.021,16.983-40.479,27.49-66.38,27.53h-0.079h-0.084h-0.08h-0.078    c-25.902-0.04-49.357-10.547-66.381-27.53c-36.735-36.774-36.735-96.311,0-133.084c17.023-16.982,40.479-27.49,66.381-27.53h0.078    H368.189z M347.016,114.383c-0.736-1.589,0-3.502,1.631-4.235c1.625-0.733,3.499-0.041,4.229,1.589l12.872,28.018l23.941,7.004    c1.717,0.529,2.691,2.322,2.204,4.032c-0.487,1.669-2.282,2.646-3.993,2.158l-25.33-7.453c-0.894-0.244-1.631-0.855-2.038-1.709    L347.016,114.383z M441.008,70.646c-18.575-18.651-44.391-30.177-72.818-30.177c-28.422,0-54.245,11.525-72.893,30.177    c-18.568,18.651-30.139,44.43-30.139,72.854c0,28.465,11.57,54.203,30.139,72.854c18.647,18.651,44.471,30.177,72.893,30.177    c28.428,0,54.243-11.525,72.818-30.177c18.646-18.651,30.217-44.389,30.217-72.854C471.225,115.076,459.654,89.297,441.008,70.646    z M205.784,81.519c-4.723-4.642-9.854-8.755-15.391-12.257l-7.742,13.357c-0.895,1.506-2.848,2.036-4.394,1.18    c-1.552-0.895-2.039-2.89-1.145-4.397l7.656-13.357c-11.319-6.028-24.106-9.612-37.787-10.1v15.394    c0,1.751-1.388,3.217-3.177,3.217c-1.795,0-3.263-1.466-3.263-3.217V55.945c-13.595,0.488-26.467,4.072-37.787,10.1l7.735,13.357    c0.894,1.507,0.329,3.502-1.139,4.397c-1.545,0.856-3.584,0.326-4.479-1.18l-7.657-13.357    c-5.538,3.462-10.668,7.534-15.233,12.094l-0.164,0.163c-4.638,4.685-8.795,9.815-12.294,15.394l13.353,7.738    c1.552,0.854,2.039,2.85,1.224,4.357c-0.895,1.547-2.934,2.077-4.479,1.18l-13.273-7.696    c-6.031,11.362-9.609,24.149-10.182,37.791h15.477c1.709,0,3.177,1.426,3.177,3.218c0,1.792-1.467,3.217-3.177,3.217H56.167    c0.572,13.642,4.15,26.47,10.182,37.792l13.273-7.696c1.545-0.897,3.584-0.367,4.479,1.181c0.815,1.507,0.328,3.502-1.224,4.398    l-13.353,7.697c3.499,5.578,7.656,10.75,12.294,15.394c4.643,4.642,9.773,8.755,15.397,12.257l7.657-13.357    c0.894-1.506,2.933-2.036,4.479-1.14c1.467,0.896,2.033,2.851,1.139,4.398l-7.735,13.357c11.32,5.987,24.192,9.57,37.787,10.099    v-15.435c0-1.75,1.467-3.216,3.263-3.216c1.789,0,3.177,1.466,3.177,3.216v15.435c13.68-0.529,26.468-4.112,37.787-10.099    l-7.656-13.357c-0.894-1.547-0.407-3.502,1.145-4.398c1.545-0.896,3.499-0.366,4.394,1.14l7.742,13.398    c5.538-3.543,10.748-7.657,15.391-12.298c4.644-4.644,8.715-9.816,12.221-15.394l-13.359-7.697    c-1.467-0.896-2.039-2.891-1.145-4.398c0.901-1.547,2.855-2.078,4.401-1.181l13.358,7.696c6.025-11.322,9.61-24.149,10.097-37.792    h-15.392c-1.789,0-3.255-1.426-3.255-3.217c0-1.792,1.466-3.218,3.255-3.218h15.392c-0.487-13.642-4.071-26.429-10.097-37.791    l-13.358,7.696c-1.545,0.897-3.5,0.367-4.401-1.18c-0.894-1.507-0.322-3.502,1.145-4.357l13.359-7.738    C214.5,91.334,210.428,86.204,205.784,81.519z M143.805,49.429h0.079h0.086c25.896,0.041,49.356,10.548,66.379,27.53    c36.729,36.773,36.729,96.31,0,133.084c-17.022,16.983-40.483,27.49-66.379,27.53h-0.086h-0.079h-0.085h-0.08    c-25.902-0.04-49.357-10.547-66.379-27.53c-36.735-36.774-36.814-96.311,0-133.084l0.164-0.163    c17.022-16.859,40.399-27.327,66.215-27.367h0.08H143.805z M115.298,127.252c-1.302-1.141-1.467-3.176-0.33-4.56    c1.145-1.303,3.178-1.467,4.565-0.327l24.836,21.503l23.87-9.57c1.625-0.651,3.5,0.123,4.151,1.792    c0.737,1.629-0.08,3.502-1.789,4.194l-25.659,10.304c-1.059,0.407-2.361,0.244-3.255-0.57L115.298,127.252z M216.617,70.646    c-18.654-18.651-44.391-30.177-72.813-30.177c-28.428,0-54.245,11.525-72.897,30.177c-18.648,18.651-30.132,44.43-30.132,72.854    c0,28.465,11.484,54.203,30.132,72.854c18.653,18.651,44.47,30.177,72.897,30.177c28.421,0,54.158-11.525,72.813-30.177    s30.217-44.389,30.217-72.854C246.834,115.076,235.271,89.297,216.617,70.646z M430.174,306.518    c-4.643-4.642-9.773-8.756-15.397-12.258l-7.734,13.357c-0.896,1.506-2.849,2.036-4.401,1.181    c-1.545-0.896-2.032-2.85-1.137-4.397l7.734-13.357c-11.398-6.027-24.186-9.611-37.787-10.141v15.435    c0,1.792-1.467,3.217-3.262,3.217c-1.789,0-3.257-1.425-3.257-3.217v-15.435c-13.603,0.529-26.389,4.113-37.709,10.141    l7.656,13.357c0.896,1.548,0.323,3.502-1.144,4.397c-1.546,0.855-3.5,0.325-4.395-1.181l-7.741-13.357    c-5.538,3.502-10.747,7.616-15.392,12.258c-4.644,4.643-8.795,9.815-12.3,15.394l13.358,7.738c1.547,0.854,2.04,2.85,1.224,4.397    c-0.894,1.507-2.854,2.036-4.399,1.14l-13.359-7.696c-6.025,11.362-9.61,24.19-10.098,37.791h15.393    c1.795,0,3.176,1.426,3.176,3.218s-1.381,3.218-3.176,3.218h-15.393c0.487,13.642,4.072,26.47,10.098,37.791l13.359-7.696    c1.545-0.896,3.506-0.366,4.399,1.181c0.816,1.508,0.323,3.502-1.224,4.398l-13.358,7.697c3.505,5.537,7.577,10.628,12.136,15.229    l0.164,0.164c4.645,4.642,9.854,8.755,15.392,12.257l7.741-13.357c0.895-1.506,2.849-2.036,4.395-1.14    c1.467,0.854,2.039,2.851,1.144,4.397l-7.656,13.316c11.32,6.028,24.106,9.652,37.709,10.141v-15.394    c0-1.792,1.468-3.258,3.257-3.258c1.795,0,3.262,1.466,3.262,3.258v15.394c13.602-0.488,26.389-4.112,37.787-10.141l-7.734-13.316    c-0.896-1.547-0.408-3.543,1.137-4.397c1.553-0.896,3.506-0.366,4.401,1.14l7.734,13.357c5.624-3.502,10.755-7.615,15.397-12.257    c4.645-4.644,8.795-9.816,12.215-15.394l-13.359-7.697c-1.466-0.896-2.032-2.891-1.137-4.398c0.894-1.547,2.848-2.077,4.399-1.181    l13.353,7.696c6.031-11.321,9.617-24.149,10.104-37.791h-15.392c-1.796,0-3.263-1.426-3.263-3.218s1.467-3.218,3.263-3.218h15.392    c-0.486-13.601-4.072-26.429-10.104-37.791l-13.353,7.696c-1.552,0.896-3.506,0.367-4.399-1.14    c-0.896-1.548-0.329-3.543,1.137-4.397l13.445-7.738C438.969,316.333,434.818,311.16,430.174,306.518z M368.189,274.428h0.084    h0.079c25.901,0.041,49.358,10.547,66.38,27.529c16.943,17.022,27.533,40.479,27.533,66.379v0.082v0.081v0.081v0.082    c0,25.9-10.59,49.356-27.533,66.38c-17.674,17.674-41.537,27.57-66.543,27.57h-0.08h-0.078    c-25.902-0.081-49.357-10.588-66.381-27.57l-0.164-0.204c-16.858-16.981-27.369-40.357-27.369-66.176v-0.082v-0.081v-0.081v-0.082    c0-25.899,10.59-49.396,27.533-66.338c17.023-17.023,40.479-27.529,66.381-27.57h0.078H368.189z M348.074,379.942    c-1.631,0.733-3.506,0.041-4.235-1.587c-0.729-1.589-0.079-3.504,1.546-4.236l28.02-12.909l7.084-23.905    c0.493-1.71,2.282-2.688,3.914-2.199c1.709,0.489,2.684,2.281,2.196,3.99l-7.413,25.331c-0.243,0.854-0.895,1.629-1.789,2.036    L348.074,379.942z M441.008,295.645c-18.575-18.651-44.391-30.177-72.818-30.177c-28.422,0-54.245,11.525-72.893,30.177    c-18.568,18.651-30.139,44.43-30.139,72.854c0,28.466,11.57,54.203,30.139,72.854c18.647,18.651,44.471,30.177,72.893,30.177    c28.428,0,54.243-11.525,72.818-30.177c18.646-18.651,30.217-44.389,30.217-72.854    C471.225,340.074,459.654,314.296,441.008,295.645z M205.784,306.518c-4.723-4.642-9.854-8.756-15.391-12.258l-7.742,13.357    c-0.895,1.506-2.848,2.036-4.394,1.181c-1.552-0.896-2.039-2.85-1.145-4.397l7.656-13.357    c-11.319-6.027-24.106-9.611-37.787-10.141v15.435c0,1.792-1.388,3.217-3.177,3.217c-1.795,0-3.263-1.425-3.263-3.217v-15.435    c-13.595,0.529-26.467,4.113-37.787,10.141l7.735,13.357c0.894,1.548,0.329,3.502-1.139,4.397    c-1.545,0.855-3.584,0.325-4.479-1.181l-7.657-13.357c-5.538,3.462-10.668,7.534-15.233,12.095l-0.164,0.163    c-4.638,4.643-8.795,9.815-12.294,15.394l13.353,7.738c1.552,0.854,2.039,2.85,1.224,4.397c-0.895,1.507-2.934,2.036-4.479,1.14    l-13.273-7.696c-6.031,11.362-9.609,24.19-10.182,37.791h15.477c1.709,0,3.177,1.426,3.177,3.218s-1.467,3.218-3.177,3.218H56.167    c0.572,13.642,4.15,26.47,10.182,37.791l13.273-7.696c1.545-0.896,3.584-0.366,4.479,1.181c0.815,1.508,0.328,3.502-1.224,4.398    l-13.353,7.697c3.499,5.577,7.656,10.75,12.294,15.394c4.643,4.642,9.773,8.755,15.397,12.257l7.657-13.357    c0.894-1.506,2.933-2.036,4.479-1.14c1.467,0.854,2.033,2.851,1.139,4.397l-7.735,13.316c11.32,6.028,24.192,9.652,37.787,10.141    v-15.394c0-1.792,1.467-3.258,3.263-3.258c1.789,0,3.177,1.466,3.177,3.258v15.394c13.68-0.488,26.468-4.112,37.787-10.141    l-7.656-13.316c-0.894-1.547-0.407-3.543,1.145-4.397c1.545-0.896,3.499-0.366,4.394,1.14l7.742,13.357    c5.538-3.502,10.668-7.615,15.391-12.257c4.644-4.644,8.715-9.816,12.221-15.394l-13.359-7.697    c-1.467-0.896-2.039-2.891-1.145-4.398c0.901-1.547,2.855-2.077,4.401-1.181l13.358,7.696c6.025-11.321,9.61-24.149,10.097-37.791    h-15.392c-1.789,0-3.255-1.426-3.255-3.218s1.466-3.218,3.255-3.218h15.392c-0.487-13.601-4.071-26.429-10.097-37.791    l-13.358,7.696c-1.545,0.896-3.5,0.367-4.401-1.14c-0.894-1.548-0.322-3.543,1.145-4.397l13.359-7.738    C214.5,316.333,210.428,311.16,205.784,306.518z M143.805,274.428h0.079h0.086c25.896,0.041,49.356,10.547,66.379,27.57    c16.938,16.941,27.527,40.438,27.527,66.338v0.082v0.081v0.081v0.082c0,25.9-10.59,49.356-27.527,66.38    c-17.759,17.674-41.543,27.57-66.544,27.57h-0.165c-25.902-0.081-49.357-10.588-66.379-27.57    c-17.022-17.023-27.527-40.479-27.527-66.38v-0.082v-0.081v-0.081v-0.082c0-25.899,10.505-49.396,27.527-66.338l0.164-0.204    c17.022-16.9,40.399-27.325,66.215-27.366h0.08H143.805z M129.144,330.667c-0.085-1.792,1.302-3.3,3.013-3.381    c1.789-0.081,3.341,1.263,3.42,3.055l2.039,36.732l17.995,11.933c1.553,1.018,1.875,2.973,0.901,4.479    c-0.901,1.467-2.933,1.873-4.4,0.896l-19.47-12.827c-0.809-0.571-1.381-1.466-1.381-2.524L129.144,330.667z M216.617,295.645    c-18.654-18.651-44.391-30.177-72.813-30.177c-28.428,0-54.245,11.525-72.897,30.177c-18.648,18.651-30.132,44.43-30.132,72.854    c0,28.466,11.484,54.203,30.132,72.854c18.653,18.651,44.47,30.177,72.897,30.177c28.421,0,54.158-11.525,72.813-30.177    s30.217-44.389,30.217-72.854C246.834,340.074,235.271,314.296,216.617,295.645z" style="fill-rule:evenodd;clip-rule:evenodd;"/></g></g><g id="Layer_1"/></svg>