<?xml version="1.0" ?><!DOCTYPE svg  PUBLIC '-//W3C//DTD SVG 1.1//EN'  'http://www.w3.org/Graphics/SVG/1.1/DTD/svg11.dtd'><svg height="512px" style="enable-background:new 0 0 512 512;" version="1.1" viewBox="0 0 512 512" width="512px" xml:space="preserve" xmlns="http://www.w3.org/2000/svg" xmlns:xlink="http://www.w3.org/1999/xlink"><g id="C_-_17_x2C__Law_x2C__Action_x2C__auction_x2C__court_x2C__gavel_x2C__hammer_x2C__judge_x2C__legal"><g><polygon points="251.267,105.248 255.754,105.248 255.754,78.106 136.725,78.106 136.725,105.248 141.208,105.248   "/><rect height="27.148" width="36.487" x="255.952" y="151.13"/><path d="M246.582,214.792v-31.828v-36.52v-31.827H145.894v100.174H246.582z M187.071,128.201h18.337v18.261h-18.337V128.201z     M187.071,155.583h18.337v18.259h-18.337V155.583z M187.071,182.973h18.337v18.259h-18.337V182.973z"/><polygon points="457.524,142.246 337.759,148.886 337.759,180.524 457.524,187.165   "/><polygon points="328.388,149.404 301.81,150.878 301.81,178.531 328.388,180.004   "/><polygon points="255.754,224.164 251.267,224.164 141.208,224.164 136.725,224.164 136.725,251.305 255.754,251.305   "/><path d="M237.408,347.272c0-7.481-6.124-13.567-13.653-13.567h-9.083c-0.03,0.001-0.06,0.009-0.091,0.009H113.694    c-0.031,0-0.06-0.008-0.091-0.009h-9.079c-7.53,0-13.656,6.086-13.656,13.567v13.573h146.54V347.272z"/><rect height="18.01" width="91.517" x="118.379" y="306.324"/><path d="M462.309,424.522H283.27v-22.47c0-17.555-14.359-31.836-32.01-31.836h-9.166H86.183h-9.165    c-16.047,0-29.371,11.806-31.661,27.141H196.24c2.588,0,4.685,2.098,4.685,4.686s-2.097,4.686-4.685,4.686H45.006v27.165h233.875    h4.389h179.039c2.588,0,4.686-2.098,4.686-4.686S464.896,424.522,462.309,424.522z"/></g></g><g id="Layer_1"/></svg>