<?xml version="1.0" encoding="utf-8"?>
<!-- Svg Vector Icons : http://www.onlinewebfonts.com/icon -->
<!DOCTYPE svg PUBLIC "-//W3C//DTD SVG 1.1//EN" "http://www.w3.org/Graphics/SVG/1.1/DTD/svg11.dtd">
<svg version="1.1" xmlns="http://www.w3.org/2000/svg" xmlns:xlink="http://www.w3.org/1999/xlink" x="0px" y="0px" viewBox="0 0 1000 1000" enable-background="new 0 0 1000 1000" xml:space="preserve">
<metadata> Svg Vector Icons : http://www.onlinewebfonts.com/icon </metadata>
<g><g transform="translate(0.000000,511.000000) scale(0.100000,-0.100000)"><path d="M4771.9,4962.4c-128.9-59.5-230.1-148.8-486-426.5c-113.1-125-242-251.9-283.7-281.7c-119-85.3-224.2-79.4-601.1,41.7c-490,156.7-644.7,170.6-837.2,75.4c-182.5-93.2-283.7-281.7-369-690.4c-77.4-371-123-503.9-192.4-573.3c-69.4-69.4-202.3-115.1-573.3-192.4c-408.7-85.3-597.1-186.5-690.4-369c-95.2-192.4-79.4-359.1,77.4-843.1c119-369,125-476.1,39.7-595.1c-29.8-41.7-156.7-170.6-281.7-283.7C181.3,463.1,100,342.1,100,110s81.3-353.1,474.1-714.2c125-113.1,251.9-242,281.7-283.7c85.3-117.1,79.4-230.1-31.7-569.4c-150.8-460.2-172.6-607-117-793.5c21.8-77.4,55.5-129,127-198.4c121-117.1,269.8-178.5,597.1-246c369-77.4,501.9-123,571.3-192.4s115.1-202.4,192.4-573.3c85.3-410.7,182.5-591.2,365-684.4c196.4-99.2,361.1-87.3,809.4,63.5c176.6,57.5,321.4,93.2,410.7,99.2c130.9,9.9,144.8,5.9,220.2-49.6c43.6-31.7,172.6-158.7,285.7-283.7c361.1-392.8,482.1-474.1,716.2-474.1c222.2,0,317.4,61.5,682.4,446.4c170.6,176.6,335.3,335.3,369,347.2c93.2,39.7,279.7,11.9,577.3-87.3c460.2-150.8,628.9-162.7,823.3-51.6c184.5,107.1,265.8,265.8,363,724.1c69.4,329.3,121,484.1,176.6,533.6c59.5,53.6,210.3,103.1,525.7,170.6c460.2,97.2,618.9,176.6,726.1,363c111.1,196.4,101.2,351.1-59.5,857c-105.1,327.3-121,464.2-71.4,561.4c15.9,29.8,170.6,190.4,345.2,357.1C9836.5-209.4,9900-112.2,9900,108c0,234.1-81.3,355.1-474.1,716.2c-125,113.1-251.9,242-281.7,283.7c-85.3,119-79.4,224.2,41.7,599.1c154.7,490,168.6,648.7,73.4,841.1c-91.3,180.5-279.7,281.7-688.4,367c-371,77.4-503.9,123-573.3,192.4c-69.4,69.4-115.1,202.3-192.4,571.3c-67.5,327.3-128.9,476.1-246,597.1c-69.4,71.4-121,105.1-198.4,127c-186.5,55.6-319.4,35.7-789.6-115.1c-347.2-113.1-456.3-119-573.3-33.7c-41.7,29.8-170.6,156.7-283.7,281.7C5353.1,4928.7,5232.1,5010,5000,5010C4906.8,5010,4843.3,4996.1,4771.9,4962.4z M5128.9,4633.1c33.7-21.8,194.4-176.6,355.1-347.2c242-253.9,313.4-317.4,418.6-369c121-59.5,136.9-61.5,311.5-53.6c150.8,7.9,240,27.8,492,109.1c636.8,206.3,654.6,194.4,801.5-509.8c127-607,253.9-728.1,914.5-861c398.7-81.3,509.8-128.9,545.5-240c29.8-89.3,5.9-206.3-111.1-565.4c-75.4-234.1-95.2-323.4-103.2-472.1c-7.9-174.6-5.9-190.4,53.6-311.5c51.6-105.1,115.1-176.6,369-418.6c331.3-313.4,386.8-382.9,386.8-484c0-101.2-55.5-170.6-386.8-484.1c-253.9-242-317.4-313.4-369-418.6c-59.5-121-61.5-136.9-53.6-311.5c7.9-148.8,27.8-238.1,103.2-472.1c204.3-622.9,182.5-670.5-345.2-783.6c-791.6-168.6-872.9-249.9-1041.5-1041.5c-113.1-527.7-160.7-549.5-783.6-345.2c-234.1,75.4-323.3,95.2-472.1,103.2c-174.6,7.9-190.5,5.9-311.5-53.6c-105.1-51.6-176.6-115.1-418.6-369c-313.5-331.3-382.9-386.8-484.1-386.8c-101.2,0-170.6,55.5-484,386.8c-242,253.9-313.4,317.4-418.6,369c-121,59.5-136.9,61.5-311.5,53.6c-150.8-7.9-240-27.8-492-109.1C2673-3952.8,2639.3-3935,2510.3-3322c-148.8,696.3-251.9,803.4-932.4,940.3c-386.8,79.3-503.9,127-545.5,230.1c-33.7,83.3-13.9,190.4,105.1,551.5c93.2,291.6,101.2,325.4,101.2,519.8c2,194.4-2,214.2-57.5,315.4c-39.7,71.4-156.7,198.4-361.1,394.8C492.8-60.6,437.2,8.8,437.2,110c0,101.2,55.5,170.6,382.9,480.1c204.3,196.4,321.4,323.4,361.1,394.8c55.5,99.2,59.5,121,59.5,315.4c-2,194.4-7.9,228.1-97.2,496c-212.3,642.7-194.4,674.5,434.5,805.4c541.6,111.1,710.2,216.2,825.3,521.7c21.8,61.5,71.4,250,107.1,418.6c129,613,162.7,632.8,783.6,430.5c289.6-95.2,319.4-101.2,515.8-103.2c194.4,0,214.2,4,315.4,59.5c71.4,39.7,196.4,154.7,386.8,353.1c152.8,162.7,311.5,317.4,349.2,343.2C4944.5,4682.7,5043.7,4686.6,5128.9,4633.1z"/><path d="M2183,1244.7l-59.5-59.5V110V-965.2l59.5-59.5c51.6-49.6,71.4-57.5,125-47.6c35.7,7.9,81.3,29.8,103.2,53.6c37.7,37.7,39.7,71.4,49.6,805.4l9.9,765.7l531.7-797.5c597.1-896.7,603.1-902.6,745.9-783.6l61.5,51.6V110v1087.1l-63.5,53.6c-75.4,63.5-160.7,57.5-228.1-21.8c-45.6-49.6-45.6-49.6-45.6-807.4v-757.8l-521.7,783.6c-287.7,430.5-537.6,795.5-553.5,807.4c-15.9,13.9-57.5,31.7-91.2,37.7C2254.4,1302.3,2234.6,1294.3,2183,1244.7z"/><path d="M4246.2,1274.5c-99.2-49.6-99.2-45.6-93.2-1188.3l4-1065.3l45.6-45.6c43.6-45.6,53.6-45.6,593.2-51.6c609-6,646.7,0,692.3,107.1c31.8,73.4,15.9,134.9-45.6,190.5c-33.7,29.8-95.2,35.7-494,39.7l-454.3,5.9l-5.9,333.3l-4,331.3h422.5c265.8,0,448.3,7.9,490,21.8c142.8,49.6,142.8,263.9,0,313.4c-41.7,13.9-224.2,21.8-490,21.8h-422.5l4,333.3l5.9,331.3l454.3,5.9c398.8,4,460.2,9.9,494,39.7c91.3,81.3,77.4,218.2-27.8,271.8C5339.2,1310.2,4323.5,1314.2,4246.2,1274.5z"/><path d="M5942.3,1276.5c-61.5-35.7-87.3-79.4-89.3-150.8c0-105.1,335.3-2085,361.1-2126.7c51.6-81.3,176.6-95.2,255.9-27.8c15.9,13.9,148.8,327.3,295.6,692.4l265.8,664.6l263.8-658.6c144.8-363,279.7-674.5,297.6-694.3c19.8-19.8,63.5-39.7,99.2-47.6c53.6-9.9,73.4-4,121,43.6c53.6,55.6,59.5,83.3,228.1,1099c95.2,573.3,172.6,1057.4,172.6,1075.2c0,17.9-21.8,57.5-47.6,87.3c-35.7,41.7-63.5,55.5-121,55.5c-140.8,0-146.8-15.9-277.7-803.4c-63.5-386.8-121-708.2-129-718.1c-5.9-7.9-115.1,240-238,553.5c-142.8,359.1-242,577.3-265.8,595.1c-53.6,35.7-150.8,35.7-204.3-2c-27.8-19.8-113.1-210.3-253.9-559.4c-117.1-293.6-222.2-553.5-234.1-581.3c-15.9-39.7-41.7,87.3-144.8,692.3c-97.2,573.3-132.9,751.9-160.7,777.7C6091.1,1290.4,5991.9,1306.2,5942.3,1276.5z"/></g></g>
</svg>