<?xml version="1.0" ?><svg viewBox="0 0 64 64" xmlns="http://www.w3.org/2000/svg"><circle cx="30" cy="26" r="2"/><circle cx="44" cy="26" r="2"/><path d="M58.016,52.722l-9.63-2.031A3.018,3.018,0,0,1,46,47.75V45.727A19.034,19.034,0,0,0,55.893,31H57a5,5,0,0,0,0-10H56A17.019,17.019,0,0,0,39,4H23a1.979,1.979,0,0,1-1.862-1.295,1.009,1.009,0,0,0-1.068-.637,7,7,0,0,0-6,7.944A7.01,7.01,0,0,0,18.816,15.6,18.819,18.819,0,0,0,18,21H17a5,5,0,0,0-3.523,8.551A5.6,5.6,0,0,0,14,30v5.189a2.908,2.908,0,0,0-3,.6,2.954,2.954,0,0,0-4,0A2.987,2.987,0,0,0,2,38V61a1,1,0,0,0,1,1H19a1,1,0,0,0,1-1V54.266l.222-.389,5.8-1.229c.151-.031.29-.087.435-.132L36,57.6V62h2V57.6l9.539-5.085c.145.045.284.1.435.132l9.631,2.031a9.938,9.938,0,0,1,3.805,1.688l1.18-1.615A11.926,11.926,0,0,0,58.016,52.722Zm-12.489-1.4L37,55.867l-8.527-4.546A5,5,0,0,0,30,47.75v-1.1a18.784,18.784,0,0,0,14,0v1.1A5,5,0,0,0,45.527,51.321ZM37,46A17.016,17.016,0,0,1,20.281,32H53.719A17.016,17.016,0,0,1,37,46ZM16,38V28a1,1,0,0,1,2,0V41H16Zm4-.566a19.012,19.012,0,0,0,2.927,4.286A2.971,2.971,0,0,0,21,41H20ZM57,23a3,3,0,0,1,0,6H56V23ZM16.052,9.732a5,5,0,0,1,3.609-5.544A4.02,4.02,0,0,0,23,6H39A15.018,15.018,0,0,1,54,20.9,5.008,5.008,0,0,1,50,16V15a1,1,0,0,0-1-1H21.211A5.131,5.131,0,0,1,16.052,9.732ZM21.211,16H48a7.006,7.006,0,0,0,6,6.92V29c0,.338-.031.667-.051,1h-33.9c-.02-.333-.051-.662-.051-1V21a16.843,16.843,0,0,1,.79-5.019C20.93,15.989,21.069,16,21.211,16ZM17,23h1v2.184A2.947,2.947,0,0,0,14.184,27,2.973,2.973,0,0,1,14,26,3,3,0,0,1,17,23ZM13,37a1,1,0,0,1,1,1v4a1,1,0,0,1-2,0V38A1,1,0,0,1,13,37ZM9,37a1,1,0,0,1,1,1v4a1,1,0,0,1-2,0V38A1,1,0,0,1,9,37ZM4,38a1,1,0,0,1,2,0v4a1,1,0,0,1-2,0ZM18.132,53.5A1,1,0,0,0,18,54v6H4V44.816a2.908,2.908,0,0,0,3-.6,2.954,2.954,0,0,0,4,0,2.97,2.97,0,0,0,3.685.26A4.983,4.983,0,0,0,19,47h1V45H19a3.006,3.006,0,0,1-2.829-2H21a1,1,0,0,1,1,1v2.734Zm7.481-2.813-4.062.86L23.868,47.5A1,1,0,0,0,24,47V44a2.973,2.973,0,0,0-.5-1.646A19.1,19.1,0,0,0,28,45.727V47.75A3.018,3.018,0,0,1,25.613,50.691Z"/><path d="M56,56H43a1,1,0,0,0-1,1v4a1,1,0,0,0,1,1H56a1,1,0,0,0,1-1V57A1,1,0,0,0,56,56Zm-1,4H44V58H55Z"/></svg>