<?xml version="1.0" encoding="utf-8"?>
<!-- Generator: Adobe Illustrator 18.1.1, SVG Export Plug-In . SVG Version: 6.00 Build 0)  -->
<svg version="1.1" id="Layer_1" xmlns="http://www.w3.org/2000/svg" xmlns:xlink="http://www.w3.org/1999/xlink" x="0px" y="0px"
	 viewBox="0 0 216 216" enable-background="new 0 0 216 216" xml:space="preserve">
<circle cx="108" cy="108" r="108"/>
<path fill="#FFFFFF" d="M193.5,111.2c-21.8,33-23.1,13.5-47.6,3.2c-1.1-15-9-33.7-17.9-42.6c-1.3-1.3-3.4-1.3-4.7,0
	c-1.3,1.3-1.3,3.4,0,4.7c0.1,0.1,0.2,0.2,0.3,0.3c7,7.2,13.7,22.5,15.4,35.1c0.7,5.2,0.6,9.8-0.7,13.3c-1.2,3.3-3.3,4.9-6.6,5.2
	c-0.3,0-0.7,0-1,0c-10.2,0-16.2-11.8-19.2-20.9c-1.9-5.6-2.7-10.1-2.7-10.3c-0.1-0.8-0.6-1.6-1.2-2.1c-0.7-0.6-1.6-0.8-2.6-0.7
	c-1.8,0.3-3,2-2.7,3.8c0.1,0.5,0.8,4.6,2.5,9.9c-37.4,6-45.2,49.6-67.7,4.5c-24.3,32.4,27.3,88.7,81.4,24
	C127.5,156,197.9,180.7,193.5,111.2z"/>
<g>
	<path fill="#FFFFFF" d="M129.4,78.8c-9,0-18.1-0.8-26.3-3c-37-9.9-70.7,0.3-71.1,0.4c-2.2,0.7-4.6-0.6-5.3-2.8
		c-0.7-2.2,0.6-4.6,2.8-5.3c1.5-0.5,36.3-11,75.8-0.5c27.6,7.4,69.2-2.8,69.7-2.9c2.3-0.6,4.6,0.8,5.2,3.1c0.6,2.3-0.8,4.6-3.1,5.2
		C175.7,73.3,153.1,78.8,129.4,78.8z"/>
</g>
<g>
	<circle fill="#EFCA5C" cx="42.4" cy="82.6" r="6.9"/>
</g>
<g>
	<path fill="#EFCA5C" d="M75.4,112c-0.4,0-0.8,0-1.1,0c-17.1-0.6-30.4-15-29.8-32.1c0.6-17.1,14.8-30.4,32.1-29.8
		c8.3,0.3,15.9,3.8,21.6,9.9c5.6,6.1,8.6,13.9,8.3,22.2C105.7,98.9,92.1,112,75.4,112z M75.4,56.7c-13.1,0-23.8,10.3-24.3,23.4
		c-0.5,13.4,10,24.7,23.4,25.2c13.5,0.5,24.7-10,25.2-23.4c0.2-6.5-2.1-12.7-6.5-17.4c-4.4-4.8-10.4-7.5-16.9-7.7
		C76,56.8,75.7,56.7,75.4,56.7z"/>
</g>
<g>
	<circle fill="#FFFFFF" cx="76.7" cy="79.4" r="6.4"/>
</g>
<g>
	<circle fill="#FFFFFF" cx="151.7" cy="79.2" r="6.4"/>
</g>
</svg>
