<?xml version="1.0" ?><!DOCTYPE svg  PUBLIC '-//W3C//DTD SVG 1.1//EN'  'http://www.w3.org/Graphics/SVG/1.1/DTD/svg11.dtd'><svg enable-background="new 0 0 96 96" height="96px" id="Layer_1" version="1.1" viewBox="0 0 96 96" width="96px" xml:space="preserve" xmlns="http://www.w3.org/2000/svg" xmlns:xlink="http://www.w3.org/1999/xlink"><rect height="6" width="24" x="57" y="69"/><rect height="6" width="24" x="57" y="57"/><rect height="6" width="24" x="57" y="45"/><path d="M90,21H54v6h33v54H9V27h33v-6H6c-1.657,0-3,1.344-3,3v60c0,1.656,1.343,3,3,3h84c1.657,0,3-1.344,3-3V24  C93,22.344,91.657,21,90,21z"/><path d="M39,29V9h18v20c0,1.657-1.343,3-3,3H42C40.343,32,39,30.657,39,29z M45,26h6V15h-6V26L45,26z"/><path d="M51,61c0-4.881-2.934-9.083-7.127-10.956C44.589,48.508,45,46.803,45,45c0-6.617-5.383-12-12-12s-12,5.383-12,12  c0,1.803,0.411,3.508,1.127,5.044C17.934,51.917,15,56.119,15,61v14h36V61z M33,39c3.309,0,6,2.691,6,6s-2.691,6-6,6  c-3.309,0-6-2.691-6-6S29.691,39,33,39z M45,69H21v-8c0-3.115,2.387-5.684,5.429-5.971C28.318,56.271,30.574,57,33,57  s4.682-0.729,6.57-1.971C42.613,55.316,45,57.885,45,61V69z"/></svg>