<?xml version="1.0" ?><svg enable-background="new 0 0 515.91 728.5" height="512" id="Layer_1" version="1.1" viewBox="0 0 512.00003 512" width="512" xml:space="preserve" xmlns="http://www.w3.org/2000/svg" xmlns:cc="http://creativecommons.org/ns#" xmlns:dc="http://purl.org/dc/elements/1.1/" xmlns:inkscape="http://www.inkscape.org/namespaces/inkscape" xmlns:rdf="http://www.w3.org/1999/02/22-rdf-syntax-ns#" xmlns:sodipodi="http://sodipodi.sourceforge.net/DTD/sodipodi-0.dtd" xmlns:svg="http://www.w3.org/2000/svg"><defs id="defs7"/><g id="g3488"><g id="g4934" style="fill:#000000;fill-opacity:1" transform="translate(-866.20581,-605.4602)"><path d="m 866.20585,605.46021 0,511.99999 511.99995,0 0,-511.99999 -511.99995,0 z" id="path4232" style="fill:#000000;fill-opacity:1;fill-rule:nonzero;stroke:none"/><path d="m 1207.1614,730.42117 c 17.6779,10.2085 40.277,4.1537 50.4789,-13.5199 10.2076,-17.6795 4.157,-40.277 -13.5225,-50.4839 -17.677,-10.2043 -40.2736,-4.1503 -50.4813,13.53 -10.2035,17.6728 -4.1504,40.2695 13.5249,50.4738 z m -75.6494,239.0126 c -16.2541,0 -31.6575,-3.6134 -45.4836,-10.0458 l -25.6841,46.02563 c 21.454,10.623 45.6061,16.625 71.1677,16.625 14.8648,0 29.2388,-2.0597 42.8979,-5.8426 2.4171,-14.8455 11.2321,-28.52813 25.2856,-36.64343 14.0292,-8.0994 30.2656,-8.9023 44.3191,-3.5908 27.3318,-26.8746 45.1162,-63.4392 47.7052,-104.1583 l -52.6794,-0.7635 c -4.8475,55.1561 -51.1198,98.3972 -107.5284,98.3972 z m 0,-215.9486 c 56.4086,0 102.6809,43.2494 107.5284,98.3996 l 52.6794,-0.7719 c -2.5924,-40.7157 -20.3776,-77.2795 -47.7127,-104.1532 -14.0518,5.3081 -30.2858,4.5036 -44.3166,-3.5975 -14.0519,-8.1119 -22.8652,-21.7929 -25.2822,-36.6401 -13.6575,-3.7787 -28.0315,-5.8409 -42.8963,-5.8409 -25.5616,0 -49.712,6.0003 -71.1643,16.6275 l 25.6824,46.0197 c 13.8244,-6.4323 29.2278,-10.0458 45.4819,-10.0458 z m -107.9731,107.9747 c 0,-36.5302 18.1544,-68.7951 45.9115,-88.3329 l -27.0222,-45.2688 c -32.3463,21.6134 -56.41024,54.6509 -66.4048,93.349 11.67676,9.5164 19.13676,24.0087 19.13676,40.2561 0,16.2448 -7.4626,30.7371 -19.13836,40.2518 9.99286,38.7006 34.0568,71.7373 66.4047,93.3507 l 27.0239,-45.2705 c -27.7571,-19.5353 -45.9115,-51.8002 -45.9115,-88.3354 z m 183.6276,131.0362 c -17.6804,10.20773 -23.7335,32.80353 -13.5283,50.47633 10.2076,17.6795 32.8026,23.7368 50.483,13.5291 17.6744,-10.2051 23.7301,-32.8026 13.5224,-50.4805 -10.2035,-17.67113 -32.8027,-23.72843 -50.4771,-13.52493 z M 943.25097,824.50177 c -20.41788,0 -36.9631,16.5427 -36.9631,36.9615 0,20.4128 16.54522,36.958 36.9631,36.958 20.41113,0 36.95799,-16.5452 36.95799,-36.958 0,-20.4188 -16.54686,-36.9615 -36.95799,-36.9615" id="circle-of-friends" style="fill:#000000;fill-opacity:1;fill-rule:nonzero;stroke:none"/></g><g id="g18086" style="fill:#ffffff;fill-opacity:1" transform="matrix(4.6798804,0,0,4.6798804,-14628.123,-100339.87)"><g id="bag_1_" style="fill:#ffffff;fill-opacity:1" transform="translate(2886.7719,21269.267)"><g id="handles_1_" style="fill:#ffffff;fill-opacity:1"><path d="m 292.328,191.267 c -3.688,1.296 -6.382,2.403 -6.382,9.445 v 3.39 l 2.208,-0.445 v -2.927 c -0.055,-4.777 1.187,-5.776 4.41,-7.167 -0.015,-0.903 -0.095,-1.666 -0.236,-2.296 z" id="path205" style="fill:#ffffff;fill-opacity:1"/><path d="m 298.749,189.76 c 0.146,0.682 0.263,1.424 0.342,2.221 5.772,-0.83 5.662,1.551 5.662,6.522 v 1.837 l 2.185,-0.448 v -1.389 c -10e-4,-7.72 -1.207,-9.788 -8.189,-8.743 z" id="path207" style="fill:#ffffff;fill-opacity:1"/><path d="m 275.999,206.09 v -10.154 c -0.07,-6.289 3.179,-8.215 9.176,-9.621 9.034,-2.119 9.609,3.705 9.609,7.41 v 8.607 l 2.212,-0.447 v -7.97 c -0.022,-7.013 -2.209,-12.264 -12.262,-9.985 -5.415,1.229 -10.943,2.609 -10.943,11.797 v 10.803 l 2.208,-0.44 z" id="path209" style="fill:#ffffff;fill-opacity:1"/></g><path d="m 317.992,200.357 -60.777,12.152 v 44.202 l 60.777,12.152 12.148,-4.418 v -59.67 l -12.148,-4.418 z m -34.223,47.212 -13.486,-1.901 v -11.194 h 13.486 v 13.095 z m 0,-14.794 h -13.486 v -10.297 l 13.486,-1.904 v 12.201 z m 18.694,17.385 -17.001,-2.485 v -13.201 h 17.001 v 15.686 z m 0,-17.385 h -17.001 v -12.301 l 17.001,-2.489 v 14.79 z" id="path211" style="fill:#ffffff;fill-opacity:1"/></g></g></g></svg>