<?xml version="1.0" ?><!DOCTYPE svg  PUBLIC '-//W3C//DTD SVG 1.1//EN'  'http://www.w3.org/Graphics/SVG/1.1/DTD/svg11.dtd'><svg height="32px" id="Layer_1" style="enable-background:new 0 0 32 32;" version="1.1" viewBox="0 0 32 32" width="32px" xml:space="preserve" xmlns="http://www.w3.org/2000/svg" xmlns:xlink="http://www.w3.org/1999/xlink"><g transform="translate(672 96)"><path d="M-640-66v2h-32v-32h4v2h-2v4h2v2h-2v4h2v2h-2v4h2v2h-2v4h2v2h-2v4H-640z M-663-70c1.656,0,3-1.344,3-3   c0-0.647-0.21-1.243-0.56-1.733l3.824-3.823c0.49,0.348,1.087,0.559,1.734,0.559c0.816,0,1.555-0.328,2.096-0.858l3.301,2.399   c-0.244,0.435-0.396,0.926-0.396,1.459c0,1.656,1.344,3,3,3s3-1.344,3-3c0-1.139-0.643-2.119-1.578-2.627l3.018-12.063l1.934,0.483   L-642-93.998l-3.467,3.584l1.936,0.482l-2.996,11.979C-646.68-77.976-646.838-78-647-78c-0.762,0-1.449,0.293-1.979,0.763   l-3.348-2.434c0.201-0.403,0.324-0.85,0.324-1.329c0-1.655-1.344-3-3-3c-1.657,0-3,1.345-3,3c0,0.647,0.21,1.242,0.559,1.734   l-3.824,3.823c-0.49-0.349-1.086-0.56-1.733-0.56c-1.657,0-3,1.344-3,3S-664.657-70.001-663-70L-663-70z"/></g></svg>