<?xml version="1.0" encoding="utf-8"?>
<!-- Generator: Adobe Illustrator 17.0.0, SVG Export Plug-In . SVG Version: 6.00 Build 0)  -->
<!DOCTYPE svg PUBLIC "-//W3C//DTD SVG 1.1//EN" "http://www.w3.org/Graphics/SVG/1.1/DTD/svg11.dtd">
<svg version="1.1" id="logo" xmlns="http://www.w3.org/2000/svg" xmlns:xlink="http://www.w3.org/1999/xlink" x="0px" y="0px"
	 width="500px" height="500px" viewBox="0 0 500 500" enable-background="new 0 0 500 500" xml:space="preserve">
<g id="DL">
	<g id="Delta" transform="translate(6.000000, 381.000000)">
		<path id="Fill-1" fill="#023461" d="M124.703,15.982c3.722,0,6.413,0.281,8,0.836c2.125,0.753,3.901,2.222,5.428,4.495
			c1.52,2.262,2.291,5.637,2.291,10.028c0,3.222-0.407,5.975-1.213,8.188c-0.777,2.143-1.86,3.856-3.219,5.092
			c-0.926,0.84-2.218,1.512-3.843,1.994c-1.708,0.509-4.155,0.768-7.274,0.768c0,0-6.677,0-9.017,0c0-2.816,0-28.585,0-31.401
			C118.183,15.982,124.703,15.982,124.703,15.982z M107.628,7.319h-1.632v48.727h19.651c3.13,0,5.948-0.275,8.377-0.814
			c2.494-0.554,4.666-1.388,6.456-2.476c1.803-1.101,3.477-2.617,4.977-4.507c1.497-1.889,2.734-4.285,3.677-7.118
			c0.937-2.822,1.412-6.085,1.412-9.696c0-4.249-0.701-8.094-2.084-11.431c-1.413-3.408-3.574-6.246-6.422-8.439
			c-2.206-1.713-4.894-2.914-7.986-3.561c-2.174-0.461-5.192-0.685-9.223-0.685H107.628L107.628,7.319z"/>
		<path id="Fill-2" fill="#023461" d="M114.224,49.016h10.649c3.288,0,5.868-0.279,7.74-0.835c1.872-0.558,3.362-1.341,4.475-2.353
			c1.564-1.423,2.783-3.337,3.655-5.742c0.875-2.402,1.312-5.318,1.312-8.745c0-4.745-0.858-8.391-2.57-10.94
			c-1.714-2.55-3.795-4.256-6.244-5.124c-1.767-0.62-4.614-0.928-8.538-0.928h-10.479V49.016z M107.628,54.413V8.952h17.203
			c3.882,0,6.845,0.217,8.888,0.65c2.862,0.599,5.304,1.687,7.325,3.258c2.635,2.026,4.603,4.616,5.91,7.768
			c1.306,3.151,1.96,6.755,1.96,10.807c0,3.453-0.443,6.513-1.329,9.18c-0.887,2.667-2.023,4.874-3.408,6.619
			c-1.385,1.748-2.902,3.122-4.546,4.126c-1.646,1.003-3.634,1.762-5.961,2.28c-2.328,0.516-5.002,0.773-8.023,0.773H107.628
			L107.628,54.413z"/>
		<path id="Fill-3" fill="#023461" d="M211.147,7.319h-32.221v48.727h34.933v-8.663c0,0-22.807,0-25.669,0c0-2.303,0-9.906,0-12.208
			c2.813,0,22.91,0,22.91,0v-8.663c0,0-20.097,0-22.91,0c0-2.198,0-8.333,0-10.53c2.844,0,24.589,0,24.589,0V7.319H211.147"/>
		<polyline id="Fill-4" fill="#023461" points="180.559,54.413 180.559,8.952 211.147,8.952 211.147,14.349 186.557,14.349 
			186.557,28.144 209.469,28.144 209.469,33.541 186.557,33.541 186.557,49.016 212.226,49.016 212.226,54.413 180.559,54.413 		"/>
		<path id="Fill-5" fill="#023461" d="M253.37,7.319h-7.63v48.727h31.573v-8.663c0,0-19.506,0-22.31,0c0-3.002,0-40.064,0-40.064
			H253.37"/>
		<polyline id="Fill-6" fill="#023461" points="247.372,54.413 247.372,8.952 253.37,8.952 253.37,49.016 275.681,49.016 
			275.681,54.413 247.372,54.413 		"/>
		<path id="Fill-7" fill="#023461" d="M331.556,7.319h-37.619v8.663c0,0,12.401,0,14.994,0c0,3.002,0,40.064,0,40.064h9.262
			c0,0,0-37.062,0-40.064c2.593,0,14.994,0,14.994,0V7.319H331.556"/>
		<polyline id="Fill-8" fill="#023461" points="310.563,54.413 310.563,14.349 295.568,14.349 295.568,8.952 331.556,8.952 
			331.556,14.349 316.56,14.349 316.56,54.413 310.563,54.413 		"/>
		<path id="Fill-9" fill="#023461" d="M373.712,19.053c0.793,2.34,1.587,4.682,1.587,4.682s2.764,7.337,3.891,10.333
			c-2.785,0-8.015,0-10.8,0c1.158-3.07,4.181-11.09,4.181-11.09l-0.002,0.002C373.051,21.71,373.317,20.361,373.712,19.053z
			 M377.053,7.319h-7.774l-20.668,48.727h9.867c0,0,4.276-11.956,4.933-13.795c1.902,0,18.988,0,20.86,0
			c0.677,1.806,5.18,13.795,5.18,13.795h10.379L378.154,7.319H377.053L377.053,7.319z"/>
		<g id="Group-13">
			<g id="Clip-11">
			</g>
			<defs>
				<filter id="Adobe_OpacityMaskFilter" filterUnits="userSpaceOnUse" x="350.982" y="8.952" width="46.431" height="45.461">
					<feColorMatrix  type="matrix" values="1 0 0 0 0  0 1 0 0 0  0 0 1 0 0  0 0 0 1 0"/>
				</filter>
			</defs>
			<mask maskUnits="userSpaceOnUse" x="350.982" y="8.952" width="46.431" height="45.461" id="mask-2">
				<g filter="url(#Adobe_OpacityMaskFilter)">
					<polygon id="path-1" fill="#FFFFFF" points="198.736,0.562 0.06,0.562 0.06,54.413 397.413,54.413 397.413,0.562 					"/>
				</g>
			</mask>
			<path id="Fill-10" mask="url(#mask-2)" fill="#023461" d="M366.03,35.701h15.52l-4.718-12.528
				c-1.405-3.834-2.485-7.015-3.238-9.543c-0.617,2.987-1.467,5.913-2.552,8.773L366.03,35.701z M350.982,54.413l19.421-45.461h6.65
				l20.36,45.461h-6.834l-5.178-13.794h-23.138l-4.936,13.794H350.982L350.982,54.413z"/>
		</g>
	</g>
	<g id="Group" transform="translate(94.000000, 63.000000)">
		<polyline id="Fill-14" fill="#DC3E37" points="157,197 157,270 1,270 157,197 		"/>
		<polyline id="Fill-15" fill="#951432" points="312,236 156,0 156,165.838 312,236 		"/>
		<polyline id="Fill-16" fill="#951432" points="156,197 156,270 312,270 156,197 		"/>
		<polyline id="Fill-12" fill="#DC3E37" points="0,236 156,0 156,165.838 0,236 		"/>
	</g>
</g>
</svg>
