<?xml version="1.0" ?><!DOCTYPE svg  PUBLIC '-//W3C//DTD SVG 1.1//EN'  'http://www.w3.org/Graphics/SVG/1.1/DTD/svg11.dtd'><svg enable-background="new 0 0 48 48" height="48px" id="Layer_3" version="1.1" viewBox="0 0 48 48" width="48px" xml:space="preserve" xmlns="http://www.w3.org/2000/svg" xmlns:xlink="http://www.w3.org/1999/xlink"><g><path d="M26.22,13.234c0.572,0,1.097-0.202,1.57-0.606c0.469-0.404,0.757-0.894,0.86-1.466   c0.098-0.576-0.024-1.062-0.38-1.466c-0.354-0.408-0.818-0.61-1.392-0.61c-0.576,0-1.1,0.202-1.569,0.61   c-0.474,0.403-0.763,0.89-0.86,1.466c-0.071,0.573,0.066,1.062,0.402,1.466C25.19,13.032,25.648,13.234,26.22,13.234z" fill="#241F20"/><path d="M30.622,27.4c-0.053,0.075-0.104,0.14-0.156,0.216c-0.312,0.396-1.475,1.795-2.984,2.632   c-0.01,0.004-0.019,0.008-0.024,0.014c-0.132,0.07-0.267,0.123-0.401,0.185c-0.398,0.143-0.771,0.179-0.891,0.188   c-0.339-0.044-0.522-0.281-0.522-0.73c0-0.371,0.108-1.104,0.328-2.205l0.254-1.111l1.035-4.968   c0.168-0.846,0.258-1.316,0.278-1.409l0.226-1.162c0.133-0.719,0.201-1.194,0.201-1.426c0-0.444-0.11-0.781-0.287-1.055   c-0.016-0.04-0.037-0.08-0.066-0.122c-0.026-0.032-0.054-0.06-0.082-0.089c-0.031-0.034-0.046-0.063-0.088-0.098   c-0.441-0.36-0.853-0.464-1.137-0.487l0.005-0.008c0,0-1.867-0.141-4.634,1.682c-0.039,0.026-0.063,0.045-0.1,0.07   c-0.75,0.474-1.348,0.949-1.764,1.332c-0.318,0.272-0.562,0.525-0.744,0.762l-0.009,0.011l0.001-0.001   c-0.235,0.311-0.359,0.593-0.359,0.843c0,0.197,0.159,0.394,0.476,0.591c0,0,1.188-1.534,3.185-2.532   c0.15-0.065,0.534-0.224,0.871-0.312c0.158-0.036,0.455-0.064,0.646,0.093c0.136,0.142,0.226,0.339,0.226,0.646   c0,0.279-0.041,0.618-0.127,1.023l-0.201,0.957l-0.252,1.196l-0.986,4.728c-0.504,2.442-0.757,3.903-0.757,4.379   c0,1.123,0.615,1.685,1.843,1.685c0.557,0,1.13-0.101,1.717-0.281c0.004,0,0.006,0.002,0.01,0.004   c0.04-0.014,0.076-0.029,0.115-0.043c0.098-0.031,0.195-0.068,0.293-0.105c2.771-1.031,4.595-3.108,5.146-3.804   c0.049-0.059,0.091-0.114,0.13-0.167c0.031-0.043,0.051-0.072,0.051-0.072h-0.002c0.14-0.206,0.217-0.377,0.217-0.505   C31.299,27.766,31.068,27.587,30.622,27.4z" fill="#241F20"/><path d="M18.732,31.873l1.435-1.436l-2.604-2.606l-1.435,1.438c-0.836-0.554-1.768-0.967-2.764-1.226v-2.147H8.74   v2.147c-1.019,0.264-1.973,0.688-2.822,1.26l-1.378-1.378l-2.605,2.603l1.401,1.402c-0.536,0.82-0.938,1.734-1.19,2.708H0v4.62   h2.146c0.258,0.997,0.671,1.932,1.225,2.768l-1.436,1.437l2.605,2.603l1.437-1.436c0.837,0.555,1.773,0.97,2.773,1.228V48h4.605   v-2.143c0.976-0.252,1.892-0.656,2.715-1.192l1.493,1.493l2.604-2.604l-1.47-1.472c0.574-0.854,1-1.814,1.263-2.838h2.143v-4.591   H19.96C19.703,33.652,19.289,32.713,18.732,31.873z M11.051,40.737c-2.092,0-3.788-1.696-3.788-3.788s1.696-3.789,3.788-3.789   s3.789,1.697,3.789,3.789S13.143,40.737,11.051,40.737z" fill="#241F20"/><path d="M24,0.125C10.814,0.125,0.125,10.814,0.125,24c0,1.757,0.195,3.468,0.555,5.116   c0.968-1.265,2.16-2.344,3.521-3.182C4.14,25.298,4.104,24.653,4.104,24C4.104,13.012,13.012,4.104,24,4.104   S43.896,13.012,43.896,24S34.988,43.896,24,43.896c-0.653,0-1.297-0.036-1.935-0.098c-0.838,1.361-1.917,2.554-3.182,3.521   c1.649,0.36,3.359,0.556,5.116,0.556c13.186,0,23.875-10.689,23.875-23.875S37.186,0.125,24,0.125z" fill="#241F20"/></g></svg>