<?xml version="1.0" ?><!DOCTYPE svg  PUBLIC '-//W3C//DTD SVG 1.1//EN'  'http://www.w3.org/Graphics/SVG/1.1/DTD/svg11.dtd'><svg height="512px" style="enable-background:new 0 0 512 512;" version="1.1" viewBox="0 0 512 512" width="512px" xml:space="preserve" xmlns="http://www.w3.org/2000/svg" xmlns:xlink="http://www.w3.org/1999/xlink"><g id="_x32_64_x2C__insurance_x2C__home_x2C__house_x2C__casualty_x2C__protection"><g><path d="M281.124,96.197c9.076,0,17.304,3.689,23.247,9.633    s9.633,14.17,9.633,23.246c0,9.047-3.689,17.274-9.633,23.218c-5.973,5.972-14.199,9.661-23.247,9.661    c-9.046,0-17.273-3.689-23.217-9.633c-5.973-5.972-9.662-14.199-9.662-23.246c0-9.076,3.688-17.303,9.631-23.246    C263.82,99.887,272.049,96.197,281.124,96.197 M299.277,110.925c-4.626-4.655-11.067-7.524-18.153-7.524    c-7.085,0-13.497,2.869-18.15,7.524c-4.656,4.626-7.524,11.067-7.524,18.151c0,7.086,2.868,13.527,7.494,18.152    c4.655,4.656,11.096,7.524,18.181,7.524c7.116,0,13.527-2.868,18.153-7.524c4.655-4.625,7.524-11.066,7.524-18.152    C306.802,121.992,303.933,115.551,299.277,110.925z M281.124,299.033c-12.092,0-23.069,4.977-31.062,12.94    c-7.965,7.964-12.912,18.942-12.912,31.034v93.366h40.373v-103.73c0-1.991,1.611-3.601,3.601-3.601    c1.992,0,3.601,1.609,3.601,3.601v103.73h40.376v-93.366c0-12.092-4.948-23.07-12.911-31.034    C304.224,304.01,293.216,299.033,281.124,299.033z M122.118,336.947c3.104,1.024,5.826,3.309,7.875,6.5    c2.488,3.893,4.069,9.222,4.069,15.02c0,2.371-0.263,4.684-0.732,6.821l-0.116,0.351c-0.353,1.494-0.792,2.899-1.348,4.246    c0.586,1.404,1.083,2.957,1.436,4.566c0.497,2.196,0.76,4.48,0.76,6.822c0,5.798-1.581,11.126-4.069,15.02    c-2.05,3.191-4.771,5.504-7.875,6.5v29.014c0,1.991-1.611,3.602-3.601,3.602c-1.962,0-3.601-1.61-3.601-3.602v-29.014    c-3.075-0.996-5.798-3.309-7.847-6.5c-2.518-3.894-4.069-9.222-4.069-15.02c0-2.371,0.263-4.685,0.731-6.822l0.088-0.321    c0.351-1.522,0.819-2.928,1.375-4.245c-0.584-1.435-1.083-2.986-1.434-4.597c-0.498-2.138-0.761-4.45-0.761-6.821    c0-5.798,1.551-11.127,4.069-15.02c2.049-3.191,4.772-5.476,7.847-6.5v-12.385c-3.017,2.254-6.793,3.602-10.862,3.602    c-2.225,0-5.504-0.879-9.896-2.079c-7.933-2.166-19.91-5.445-34.197-5.445c-1.521,0-2.899-0.966-3.396-2.46    c-0.644-1.873,0.381-3.894,2.255-4.537c2.517-0.85,6.997-3.309,12.208-6.148c11.36-6.236,26.174-14.375,36.772-14.375    c2.666,0,5.094,0.439,7.116,1.405v-13.849c0-1.99,1.639-3.601,3.601-3.601c1.99,0,3.601,1.61,3.601,3.601v14.111    c2.167-1.141,4.743-1.668,7.642-1.668c10.599,0,25.384,8.139,36.772,14.375c5.212,2.84,9.691,5.299,12.208,6.148    c1.874,0.644,2.899,2.664,2.255,4.537c-0.497,1.494-1.902,2.46-3.396,2.46c-14.287,0-26.264,3.279-34.227,5.445    c-4.362,1.2-7.642,2.079-9.867,2.079c-4.303,0-8.256-1.493-11.389-3.982V336.947z M153.474,437.691l0.03-0.029l0.03-0.029    l0.263-0.293l0.03-0.028l0.028-0.03l0.06-0.059l0.293-0.292l0.263-0.293l0.293-0.264l0.263-0.293l1.113-1.112l0.263-0.293    l0.263-0.264l0.293-0.293l0.263-0.263l0.263-0.293l0.263-0.264l0.528-0.527l0.263-0.292l0.263-0.264l0.263-0.264l0.263-0.264    l0.265-0.264l0.263-0.263l0.263-0.264l0.263-0.264l0.235-0.264l0.263-0.263l0,0l1.113-1.113l0.028-0.059l1.055-1.054l0.088-0.088    l0.967-0.995l0.146-0.146l0.907-0.938l0.177-0.204l0.848-0.85l0.235-0.234l0.79-0.819l0.263-0.264l0.733-0.732l0.321-0.351    l0.674-0.674l0.351-0.381l0.614-0.614l0.411-0.41l0.526-0.586l0.469-0.438l0.468-0.527l0.499-0.497l0.438-0.469l0.499-0.527    l0.409-0.41l0.556-0.556l0.323-0.381l0.586-0.615l0.293-0.292l0.614-0.645l0.233-0.264l0.674-0.673l0.175-0.234l0.674-0.703    l0.146-0.175l0.733-0.762l0.087-0.117l0.732-0.79l0.088-0.059l0.761-0.85l0.028-0.029l0.762-0.849l0,0l0.761-0.819l0.03-0.06    l0.702-0.79l0.088-0.088l0.644-0.731l0.118-0.118l0.614-0.702l0.147-0.146l1.228-1.435l0.206-0.264l0.468-0.556l0.235-0.264    l0.438-0.498l0.264-0.322c7.963-9.574,12.969-17.918,16.073-28.165c1.786-5.914,2.987-12.56,3.806-20.465v-0.088    c0.205-2.284,0.411-4.655,0.586-7.173v-0.264l0.088-0.996l0.058-1.259l0.03-0.438l0.058-0.879v-0.497l0.06-0.82l0.028-0.585    l0.03-0.762l0.03-0.645l0.028-0.73l0.03-0.732l0.03-0.645l0.028-0.82l0.03-0.614l0.03-0.878v-0.557l0.028-0.967l0.03-0.468    l0.03-1.083v-0.41l0.03-1.171v-0.352l0.028-1.259v-0.264l0.03-1.347v-0.205l0.03-1.464v-0.117l0.028-1.581v-0.028l0.03-1.641    v-0.029l0.03-1.639v-0.117v-1.581v-0.206l0.028-1.492v-0.293v-1.464v-0.381l0.03-1.376v-0.497v-1.317v-0.586v-1.23v-0.702v-1.171    v-0.791v-1.083v-0.907v-1.025v-0.995v-0.937v-1.142v-0.85v-1.259v-0.762v-1.346v-0.674v-1.522v-0.556v-1.641v-0.469v-1.756v-0.41    l-0.03-1.874v-0.292v-2.021v-0.175v-2.197v-0.059l-0.058-23.451l-0.819,0.117l0,0l-0.819,0.088l0,0l-0.821,0.088l0,0l-0.819,0.088    v0.029l-0.82,0.059v0.029l-0.819,0.059v0.029l-0.792,0.059l0,0l-0.819,0.088l0,0l-0.79,0.088l0,0l-0.819,0.059l0,0l-0.792,0.088    l-0.819,0.059l0,0l-0.792,0.059l0,0l-0.79,0.059l0,0l-0.792,0.059l0,0l-0.79,0.059l-0.792,0.029l0,0l-0.79,0.059l0,0l-0.792,0.029    v0.029l-0.79,0.029l0,0l-0.792,0.029l0,0l-0.76,0.028l-0.792,0.03l-0.79,0.029l0,0h-0.762v0.028h-0.761l-0.79,0.03l0,0h-0.762l0,0    h-0.762l0,0h-0.762h-0.761h-0.79l0,0h-0.732l0,0h-0.762l-0.761-0.03l0,0h-0.762v-0.028h-0.732l-0.761-0.029l-0.732-0.03    l-0.76-0.028l0,0l-0.733-0.029v-0.029l-0.76-0.029l0,0l-0.733-0.029v-0.029l-0.732-0.029l0,0l-0.732-0.059l0,0l-0.731-0.059l0,0    l-0.732-0.059l0,0l-0.731-0.059l0,0l-0.704-0.059l0,0l-0.732-0.059v-0.029l-0.732-0.059l0,0l-0.702-0.088l0,0l-0.704-0.088l0,0    l-0.732-0.088l0,0l-0.702-0.088l0,0l-0.732-0.088l0,0l-0.704-0.088l0,0l-0.702-0.117l0,0l-0.704-0.088l0,0l-0.702-0.117l0,0    l-0.674-0.117l0,0l-0.702-0.117l0,0l-0.704-0.116l0,0l-0.672-0.117l0,0l-0.733-0.146h-0.028l-2.079-0.41l-0.088-0.029    l-0.614-0.117l-0.117-0.029l-0.557-0.146l-0.175-0.029l-0.526-0.117l-0.206-0.059l-0.498-0.117l-0.206-0.029    c-1.083-0.264-2.137-0.557-3.19-0.85l-0.353-0.088l-0.321-0.088l-0.381-0.117l-0.293-0.088l-0.409-0.117l-0.265-0.087    l-0.438-0.118l-0.233-0.058l-0.469-0.146l-0.205-0.059l-0.469-0.146l-0.175-0.088l-1.2-0.381l-0.118-0.028l-0.556-0.206    l-0.118-0.028c-0.877-0.293-1.727-0.615-2.576-0.938l0,0c-0.879-0.352-1.727-0.673-2.548-1.025l-0.116-0.028l-0.528-0.234    l-0.116-0.059c-0.821-0.322-1.611-0.673-2.373-1.054l-0.233-0.088l-0.38-0.205l-0.264-0.088l-0.38-0.205l-0.263-0.117    l-0.323-0.176l-1.814-0.908l-0.38-0.175l-0.235-0.146l-0.381-0.204l-0.205-0.118l-0.409-0.204l-0.205-0.117l-0.409-0.234    l-0.177-0.088l-0.584-0.352l-0.469-0.264l-0.117-0.059l-0.499-0.293l-0.088-0.059l-0.526-0.293l-0.058-0.058l-0.586-0.353    l-0.556-0.35h-0.03l-0.556-0.381l0,0l-0.584-0.352v-0.029l-0.556-0.352l-0.03-0.029l-0.528-0.352l-0.058-0.029l-0.498-0.352    l-0.088-0.059l-0.497-0.322l-0.088-0.088l-0.44-0.321l-0.146-0.088l-0.438-0.292l-0.147-0.117l-0.381-0.293L122,242.85    l-0.381-0.293l-0.204-0.146l-0.353-0.264L120.86,242l-0.323-0.264l-0.233-0.176l-0.293-0.234    c-13.527,8.638-27.814,14.493-42.833,17.479c-14.58,2.899-29.834,3.134-45.848,0.645v14.727    c-0.06,55.452-0.117,82.504,6.821,102.384c6.5,18.68,19.586,31.825,45.029,57.413l14.961,15.107h44.269    C146.36,444.981,150.048,441.205,153.474,437.691z M141.499,319.176c5.74-1.553,13.439-3.66,22.573-4.831l-0.995-0.556    c-10.657-5.855-24.535-13.468-33.317-13.468c-4.304,0-7.231,2.547-7.231,9.661c0,3.045,1.229,5.797,3.22,7.788    c1.992,1.962,4.743,3.221,7.758,3.221C134.912,320.991,137.723,320.201,141.499,319.176z M73.488,314.345    c9.134,1.171,16.833,3.278,22.573,4.831c3.747,1.025,6.587,1.815,7.993,1.815c3.045,0,5.766-1.229,7.758-3.221    c1.669-1.669,2.812-3.894,3.104-6.354v-3.513c-0.528-5.533-3.28-7.583-7.116-7.583c-8.783,0-22.661,7.612-33.317,13.468    L73.488,314.345z M123.934,347.312c-1.465-2.255-3.368-3.688-5.299-3.747h-0.118h-0.088c-1.961,0.059-3.836,1.492-5.329,3.747    c-1.786,2.811-2.899,6.733-2.899,11.155c0,1.844,0.206,3.63,0.557,5.27c0.353,1.64,0.909,3.162,1.581,4.508    c0.499,0.996,0.528,2.197,0,3.25c-0.644,1.26-1.17,2.665-1.521,4.188l-0.06,0.322c-0.351,1.639-0.557,3.425-0.557,5.27    c0,4.42,1.113,8.345,2.899,11.154c1.523,2.313,3.425,3.748,5.417,3.748c1.99,0,3.924-1.435,5.417-3.748    c1.814-2.81,2.927-6.734,2.927-11.154c0-1.903-0.205-3.689-0.556-5.27c-0.351-1.64-0.907-3.191-1.581-4.538    c-0.469-0.967-0.526-2.138,0-3.191c0.644-1.259,1.143-2.694,1.523-4.245l0.058-0.293c0.351-1.64,0.556-3.426,0.556-5.27    C126.861,354.045,125.749,350.122,123.934,347.312z M333.825,185.729v21.93h58.642v-21.93H333.825z M169.752,185.729v21.93h58.673    v-21.93H169.752z M235.627,185.729v25.53c0,1.962-1.611,3.601-3.601,3.601h-65.845c-1.991,0-3.602-1.639-3.602-3.601v-25.53    h-38.851v49.362l0,0l0.381,0.321l0.116,0.088l1.436,1.113l0.088,0.059l0.995,0.732l0.03,0.029l0.499,0.38h0.028l0.498,0.381h0.03    l0.497,0.351l0.03,0.029l0.499,0.352l0.058,0.029l1.551,1.025l0.117,0.058l0.557,0.353l0.41,0.263l0.146,0.088l0.381,0.234    l0.175,0.116c0.762,0.439,1.523,0.879,2.283,1.318l0.323,0.176l0.263,0.146l1.172,0.614l0.233,0.117l0.351,0.177l1.2,0.613    l0.175,0.088l0.411,0.205l0.176,0.059l0.438,0.205l0.118,0.088l0.469,0.205l0.614,0.264l0.088,0.059l0.528,0.234l1.23,0.527h0.028    l1.201,0.497l0,0l1.2,0.468l0.06,0.029c0.79,0.293,1.581,0.586,2.371,0.879l0.147,0.029c1.814,0.645,3.63,1.2,5.503,1.728    l0.353,0.088l1.346,0.351l0.235,0.088l0.438,0.088l0.206,0.059l0.468,0.117c1.113,0.264,2.253,0.527,3.396,0.762l0.058,0.029    l0.616,0.117h0.058l1.348,0.264l0,0l1.405,0.234l0,0l0.702,0.117l0,0l0.702,0.116l0.734,0.118l1.434,0.204l0,0l0.704,0.088l0,0    l0.731,0.117l0.732,0.087l0,0l0.732,0.06l0,0l0.731,0.088l0,0l0.732,0.087l0,0l0.731,0.06l0.762,0.058l0.732,0.089l0,0    l0.731,0.058l0,0l0.762,0.029v0.029l0.762,0.029l0,0l0.731,0.059l0.762,0.029l0.761,0.059l0.76,0.029l0,0l0.761,0.029l0,0    l0.762,0.029l0,0h0.762l0.79,0.029h0.761l0.792,0.029l0,0h0.76l0,0h0.792h0.79l0,0l1.581-0.029h0.762h0.03l0.79-0.029h0.792    l0.79-0.029l0,0l0.792-0.029h0.03l0.79-0.029l1.611-0.088l0,0l1.609-0.088l0,0c1.641-0.116,3.279-0.234,4.918-0.381l0,0    l1.668-0.146l0,0l4.187-0.439l0,0l1.699-0.205l0,0l4.245-0.585l0.732-0.059h0.117h0.088l0,0h0.088l0,0h0.087l0,0l0.088,0.029l0,0    h0.088l0,0l0.089,0.029l0,0h0.088l0,0l0.088,0.029l0,0l0.087,0.029l0,0h0.088l0,0l0.088,0.029l0,0l0.087,0.029l0,0l0.088,0.029    l0,0l0.058,0.029l0,0l0.087,0.029v0.029h0.088v0.028l0.088,0.03l0,0l0.06,0.029l0,0l0.087,0.029v0.029l0.058,0.028h0.03    l0.058,0.03v0.029l0.06,0.028h0.028l0.06,0.06l0,0l0.058,0.028h0.03l0.058,0.059l0,0l0.06,0.06l0,0l0.058,0.058h0.03l0.058,0.059    l0,0l0.058,0.059l0,0l0.06,0.059l0,0l0.058,0.059l0,0l0.058,0.058l0,0l0.06,0.06l0,0l0.058,0.059l0,0l0.06,0.059v0.029    l0.058,0.058l0,0l0.058,0.059l0,0l0.06,0.059v0.029l0.028,0.059l0,0l0.06,0.059v0.029l0.028,0.059h0.03l0.03,0.059v0.029    l0.028,0.059h0.03l0.03,0.088l0,0l0.028,0.059l0,0l0.03,0.088l0,0l0.06,0.088l0,0l0.028,0.088l0,0l0.03,0.059l0,0l0.03,0.088l0,0    l0.028,0.088l0,0l0.03,0.088l0,0v0.088l0,0l0.03,0.088l0,0l0.028,0.088l0,0v0.088l0,0l0.03,0.088l0,0v0.088l0,0l0.03,0.088l0,0    v0.088l0,0V255l0,0v0.087v0.118l0.058,27.549v0.059v2.226v0.175v2.08v0.264v1.932v0.381v1.786v0.497l0.03,1.64v0.614v1.523v0.673    v1.376v0.791v1.258v0.879v1.143v0.937v1.054v3.045v0.82v1.171v0.702l-0.03,1.26v0.614v1.347v0.469v1.405v0.41l-0.03,1.464v0.293    v1.551v0.205l-0.028,1.61v0.117v1.64v0.029l-0.03,1.669v0.059l-0.03,1.581v0.146l-0.028,1.669l-0.03,1.405l-0.03,0.264    l-0.088,4.332l-0.028,0.498l-0.03,0.995l-0.03,0.557l-0.03,0.907v0.615l-0.087,2.225l-0.028,0.762    c-0.704,15.107-2.109,26.32-5.036,35.982c-3.864,12.765-10.188,22.514-20.641,34.431l-0.175,0.204l-0.614,0.703l-0.147,0.146    l-0.644,0.731l-0.118,0.118l-1.551,1.727l-0.03,0.029l-0.819,0.879v0.028l-0.819,0.879l-0.058,0.059l-0.792,0.85l-0.116,0.116    l-0.733,0.791l-0.175,0.175l-0.702,0.762l-0.205,0.205l-1.902,2.021l-0.616,0.644l-0.937,0.966l-0.409,0.439l-0.528,0.557    l-0.469,0.469l-0.497,0.527l-0.528,0.556l-0.468,0.468l-0.584,0.586l-0.411,0.438l-0.644,0.674l-0.351,0.352l-0.732,0.732    l-0.323,0.351l-0.762,0.791l-0.292,0.263l-0.849,0.879l-0.205,0.205l-0.907,0.937l-0.176,0.176l-0.997,1.025l-0.088,0.087    l-1.083,1.113l-0.03,0.028l-1.141,1.172l0,0l-0.265,0.264l-0.291,0.292l-0.265,0.265l-0.291,0.292l-0.118,0.117h65.171v-93.366    c0-14.082,5.768-26.877,15.049-36.129c9.253-9.28,22.046-15.02,36.128-15.02c14.084,0,26.878,5.739,36.159,15.02    c9.251,9.252,15.019,22.047,15.019,36.129v93.366h70.383V280.588c0-1.99,1.611-3.602,3.603-3.602c1.99,0,3.601,1.611,3.601,3.602    v155.786h28.635V185.729H399.67v25.53c0,1.962-1.61,3.601-3.601,3.601h-65.845c-1.992,0-3.604-1.639-3.604-3.601v-25.53H235.627z     M370.598,44.611c0.819-2.108,2.137-3.924,3.836-5.357c2.341-1.992,5.415-3.191,8.725-3.191c1.258,0,2.488,0.176,3.688,0.497    l0.438,0.146c1.055-1.082,2.255-2.02,3.572-2.751l0.205-0.117c2.166-1.142,4.596-1.786,7.145-1.786    c4.187,0,7.992,1.698,10.744,4.451l0.029,0.058c2.166,2.167,3.688,5.007,4.215,8.14l0.88-0.029c4.187,0,7.992,1.697,10.774,4.479    c2.751,2.724,4.449,6.529,4.449,10.746l-0.058,1.346c0.702,0.908,1.288,1.903,1.727,2.986c0.702,1.611,1.055,3.396,1.055,5.241    c0,3.718-1.493,7.114-3.953,9.573c-2.431,2.43-5.826,3.953-9.574,3.953h-55.188c-3.746,0-7.144-1.523-9.574-3.953    c-2.458-2.459-3.981-5.855-3.981-9.573c0-3.747,1.523-7.144,3.981-9.573c1.641-1.641,3.69-2.869,6.003-3.484    c0.321-3.162,1.757-5.973,3.864-8.081C365.474,46.455,367.904,45.139,370.598,44.611z M149.697,418.135    c-1.493,1.316-3.748,1.17-5.064-0.322c-1.317-1.464-1.172-3.748,0.321-5.065c45.469-40.14,45.41-42.716,43.916-105.37    c-0.175-7.787-0.381-16.483-0.526-26.35c-11.857,0.264-23.656-0.586-35.074-2.957c-12.034-2.488-23.658-6.646-34.432-12.971    c-10.862,5.651-22.075,9.809-33.611,12.502c-11.125,2.576-22.573,3.806-34.225,3.689l-0.03,3.25    c-0.233,18.064-0.468,36.187,0.058,54.074c0.03,1.992-1.521,3.631-3.483,3.689c-1.992,0.059-3.63-1.522-3.688-3.483    c-0.528-17.977-0.293-36.216-0.06-54.368l0.088-6.91c0.06-1.99,1.729-3.543,3.69-3.484c12.268,0.41,24.33-0.732,36.011-3.454    c11.563-2.694,22.807-6.968,33.64-12.794c1.083-0.586,2.458-0.586,3.571,0.117c10.541,6.44,21.989,10.656,33.904,13.115    c12.004,2.489,24.505,3.221,37.008,2.693h0.117c1.96,0,3.601,1.582,3.601,3.543c0.146,11.214,0.409,21.139,0.614,29.922    C197.595,373.047,197.655,375.77,149.697,418.135z M66.666,486c-1.962,0-3.571-1.61-3.571-3.602c0-1.962,1.609-3.602,3.571-3.602    h298.633c1.989,0,3.6,1.64,3.6,3.602c0,1.991-1.61,3.602-3.6,3.602H66.666z M241.541,469.75c-1.99,0-3.601-1.609-3.601-3.601    s1.611-3.602,3.601-3.602h206.643c1.99,0,3.601,1.61,3.601,3.602s-1.61,3.601-3.601,3.601H241.541z M54.925,470.219    c-1.99,0-3.601-1.609-3.601-3.571c0-1.991,1.611-3.602,3.601-3.602h97.905c1.992,0,3.603,1.61,3.603,3.602    c0,1.962-1.611,3.571-3.603,3.571H54.925z M321.498,51.228c1.729,0.966,2.314,3.191,1.317,4.89    c-0.995,1.727-3.19,2.313-4.919,1.317l-40.959-23.656l-86.662,54.134c-1.697,1.025-3.894,0.527-4.947-1.17    c-1.055-1.67-0.528-3.895,1.141-4.949l88.506-55.246c1.085-0.674,2.49-0.762,3.69-0.059L321.498,51.228z M120.039,178.526h0.089    h45.936h66.05h98.021h0.09h65.845h0.116h45.938h0.088h38.471L277.904,53.424L81.246,178.526H120.039z" style="fill-rule:evenodd;clip-rule:evenodd;"/></g></g><g id="Layer_1"/></svg>