<?xml version="1.0" ?><svg enable-background="new 0 0 500 500" id="Layer_1" version="1.1" viewBox="0 0 500 500" xml:space="preserve" xmlns="http://www.w3.org/2000/svg" xmlns:xlink="http://www.w3.org/1999/xlink"><g><g><path d="M388,428.4H114.2V72.6h183.6l90.1,90.1V428.4z M141.6,401.1h219V174l-74.1-74.1H141.6V401.1z"/></g><g><polygon points="374.3,182.1 278.5,182.1 278.5,86.2 305.9,86.2 305.9,154.7 374.3,154.7   "/></g><g><path d="M240.5,248.2c0,8.4-2.6,14.9-7.9,19.3c-5.3,4.5-12.7,6.7-22.4,6.7h-7.1V302h-16.6v-78.2h25c9.5,0,16.7,2,21.6,6.1    C238.1,234,240.5,240.1,240.5,248.2z M203.1,260.6h5.5c5.1,0,8.9-1,11.4-3s3.8-4.9,3.8-8.8c0-3.9-1.1-6.8-3.2-8.6s-5.4-2.8-10-2.8    h-7.5V260.6z"/><path d="M318,262.8c0,12.9-3.2,22.9-9.6,29.8c-6.4,7-15.6,10.4-27.6,10.4s-21.2-3.5-27.6-10.4c-6.4-7-9.6-16.9-9.6-29.9    c0-13,3.2-23,9.7-29.8c6.4-6.9,15.7-10.3,27.7-10.3c12,0,21.2,3.5,27.6,10.4C314.9,239.9,318,249.8,318,262.8z M261,262.8    c0,8.7,1.7,15.3,5,19.7c3.3,4.4,8.3,6.6,14.9,6.6c13.2,0,19.8-8.8,19.8-26.4c0-17.6-6.6-26.4-19.7-26.4c-6.6,0-11.6,2.2-14.9,6.7    C262.7,247.5,261,254.1,261,262.8z"/></g></g></svg>