<?xml version="1.0" ?><!DOCTYPE svg  PUBLIC '-//W3C//DTD SVG 1.1//EN'  'http://www.w3.org/Graphics/SVG/1.1/DTD/svg11.dtd'><svg enable-background="new 0 0 48 48" height="48px" id="Layer_1" version="1.1" viewBox="0 0 48 48" width="48px" xml:space="preserve" xmlns="http://www.w3.org/2000/svg" xmlns:xlink="http://www.w3.org/1999/xlink"><g id="Layer_3"><path d="M24,0C10.745,0,0,10.745,0,24s10.745,24,24,24s24-10.745,24-24S37.255,0,24,0z M25.271,35.139   c-0.481,0.476-1.151,0.713-2.011,0.713c-0.879,0-1.559-0.231-2.04-0.697c-0.481-0.467-0.723-1.123-0.723-1.971   c0-0.879,0.236-1.543,0.707-1.994c0.471-0.449,1.156-0.674,2.056-0.674c0.869,0,1.541,0.229,2.019,0.689   c0.476,0.461,0.714,1.12,0.714,1.979C25.993,34.01,25.753,34.661,25.271,35.139z M30.451,20.829   c-0.523,0.837-1.518,1.779-2.982,2.826c-1.005,0.743-1.641,1.308-1.906,1.695c-0.268,0.389-0.4,0.896-0.4,1.523v0.941h-4.159   v-1.162c0-1.004,0.214-1.879,0.644-2.621c0.429-0.743,1.214-1.533,2.354-2.37c1.099-0.785,1.823-1.423,2.174-1.915   c0.351-0.492,0.525-1.042,0.525-1.648c0-0.68-0.251-1.198-0.753-1.554s-1.203-0.534-2.104-0.534c-1.569,0-3.359,0.513-5.368,1.539   l-1.711-3.438c2.333-1.308,4.809-1.962,7.425-1.962c2.155,0,3.87,0.518,5.141,1.554s1.906,2.417,1.906,4.144   C31.236,18.998,30.975,19.992,30.451,20.829z" fill="#241F20"/></g></svg>